<?xml version="1.0" encoding="utf-8"?>
<!-- Generator: Adobe Illustrator 24.2.3, SVG Export Plug-In . SVG Version: 6.00 Build 0)  -->
<svg version="1.1" id="Layer_1" xmlns="http://www.w3.org/2000/svg" xmlns:xlink="http://www.w3.org/1999/xlink" x="0px" y="0px"
	 viewBox="0 0 106.5 34.4" style="enable-background:new 0 0 106.5 34.4;" xml:space="preserve">
<style type="text/css">
	.st0{fill:#FFFFFF;}
	.st1{fill:#FF3366;}
</style>
<g>
	<g>
		<g>
			<path id="SVGID_1_" class="st0" d="M44.5,5.4v4.1h6.1v4.2h-6.1v11.8h-4.2V5.4c0-2.4,2-4.4,4.4-4.4h7.6v4.2h-7.6
				C44.6,5.2,44.5,5.3,44.5,5.4z"/>
		</g>
		<g>
			<defs>
				<path id="SVGID_2_" d="M44.5,5.4v4.1h6.1v4.2h-6.1v11.8h-4.2V5.4c0-2.4,2-4.4,4.4-4.4h7.6v4.2h-7.6C44.6,5.2,44.5,5.3,44.5,5.4z
					"/>
			</defs>
			<clipPath id="SVGID_3_">
				<use xlink:href="#SVGID_2_"  style="overflow:visible;"/>
			</clipPath>
		</g>
	</g>
</g>
<g>
	<g>
		<g>
			<path id="SVGID_5_" class="st0" d="M68.8,33.9H57.4v-4.2h11.4c0.1,0,0.2-0.1,0.2-0.2v-2.9H58.7c-2.4,0-4.4-2-4.4-4.4V8.3h4.2v14
				c0,0.1,0.1,0.2,0.2,0.2h10c0.1,0,0.2-0.1,0.2-0.2v-14h4.2v21.3C73.2,31.9,71.2,33.9,68.8,33.9z"/>
		</g>
		<g>
			<defs>
				<path id="SVGID_4_" d="M68.8,33.9H57.4v-4.2h11.4c0.1,0,0.2-0.1,0.2-0.2v-2.9H58.7c-2.4,0-4.4-2-4.4-4.4V8.3h4.2v14
					c0,0.1,0.1,0.2,0.2,0.2h10c0.1,0,0.2-0.1,0.2-0.2v-14h4.2v21.3C73.2,31.9,71.2,33.9,68.8,33.9z"/>
			</defs>
			<clipPath id="SVGID_6_">
				<use xlink:href="#SVGID_4_"  style="overflow:visible;"/>
			</clipPath>
		</g>
	</g>
</g>
<g>
	<g>
		<path id="SVGID_9_" class="st0" d="M80.8,1.1v20.1c0,0.1,0.1,0.2,0.2,0.2h3.8v4.2h-3.8c-2.4,0-4.4-2-4.4-4.4V1.1L80.8,1.1
			L80.8,1.1z"/>
	</g>
	<g>
		<defs>
			<path id="SVGID_7_" d="M80.8,1.1v20.1c0,0.1,0.1,0.2,0.2,0.2h3.8v4.2h-3.8c-2.4,0-4.4-2-4.4-4.4V1.1L80.8,1.1L80.8,1.1z"/>
		</defs>
		<clipPath id="SVGID_8_">
			<use xlink:href="#SVGID_7_"  style="overflow:visible;"/>
		</clipPath>
	</g>
</g>
<g>
	<g>
		<g>
			<path id="SVGID_13_" class="st0" d="M101.8,14.2v-2.7c0-0.1-0.1-0.2-0.2-0.2H91.5c-0.1,0-0.2,0.1-0.2,0.2v2.7H101.8z M105.9,11.5
				v6.9H91.2v2.7c0,0.1,0.1,0.2,0.2,0.2h14.5v4.2H91.5c-2.4,0-4.4-2-4.4-4.4v-9.6c0-2.4,2-4.4,4.4-4.4h10.1
				C103.9,7.1,105.9,9.1,105.9,11.5z"/>
		</g>
		<g>
			<defs>
				<path id="SVGID_10_" d="M101.8,14.2v-2.7c0-0.1-0.1-0.2-0.2-0.2H91.5c-0.1,0-0.2,0.1-0.2,0.2v2.7H101.8z M105.9,11.5v6.9H91.2
					v2.7c0,0.1,0.1,0.2,0.2,0.2h14.5v4.2H91.5c-2.4,0-4.4-2-4.4-4.4v-9.6c0-2.4,2-4.4,4.4-4.4h10.1C103.9,7.1,105.9,9.1,105.9,11.5z
					"/>
			</defs>
			<clipPath id="SVGID_11_">
				<use xlink:href="#SVGID_10_"  style="overflow:visible;"/>
			</clipPath>
		</g>
	</g>
</g>
<rect x="2.3" y="0.4" class="st0" width="15.7" height="27.5"/>
<g>
	<g>
		<g>
			<path id="SVGID_17_" class="st1" d="M14.6,0.4H2.3c-1,0-1.7,0.8-1.7,1.7v29.4c0,0.9,0.8,1.7,1.7,1.7h30c1,0,1.7-0.8,1.7-1.7V2.2
				c0-0.9-0.8-1.7-1.7-1.7h-4.7H16.9v0.7c0,0.2,0,20.2,0,20.4v0.2c-0.1,1.1-0.4,1.9-1.1,2.5c-1.3,1.3-3.5,1.4-5.5,1.4
				c-2.6,0-6.2-0.3-6.8-3.1l-0.1-0.7c0-0.1,0-0.5,0-1.5c0-1,0-2.3,0-3.7v-0.3V5.9c0-0.7,0.2-1.2,0.7-1.7c0.5-0.5,1.1-0.7,1.7-0.7
				l6.4,0l0.2,0.1v1.9v0.2h-0.2H12h-0.9h-5c-0.2,0-0.3,0.1-0.3,0.2c0,0.3,0,0.5,0,0.5v4.3h4.6h0.2v0.2v1.7v0.2h-0.2H5.9v4.7v0.3v3.9
				c0.1,1.6,2.4,1.9,4.4,1.9c0.9,0,2.8,0,3.6-0.9c0.2-0.2,0.4-0.6,0.6-1.3V1.7L14.6,0.4L14.6,0.4z"/>
		</g>
		<g>
			<defs>
				<path id="SVGID_12_" d="M14.6,0.4H2.3c-1,0-1.7,0.8-1.7,1.7v29.4c0,0.9,0.8,1.7,1.7,1.7h30c1,0,1.7-0.8,1.7-1.7V2.2
					c0-0.9-0.8-1.7-1.7-1.7h-4.7H16.9v0.7c0,0.2,0,20.2,0,20.4v0.2c-0.1,1.1-0.4,1.9-1.1,2.5c-1.3,1.3-3.5,1.4-5.5,1.4
					c-2.6,0-6.2-0.3-6.8-3.1l-0.1-0.7c0-0.1,0-0.5,0-1.5c0-1,0-2.3,0-3.7v-0.3V5.9c0-0.7,0.2-1.2,0.7-1.7c0.5-0.5,1.1-0.7,1.7-0.7
					l6.4,0l0.2,0.1v1.9v0.2h-0.2H12h-0.9h-5c-0.2,0-0.3,0.1-0.3,0.2c0,0.3,0,0.5,0,0.5v4.3h4.6h0.2v0.2v1.7v0.2h-0.2H5.9v4.7v0.3
					v3.9c0.1,1.6,2.4,1.9,4.4,1.9c0.9,0,2.8,0,3.6-0.9c0.2-0.2,0.4-0.6,0.6-1.3V1.7L14.6,0.4L14.6,0.4z"/>
			</defs>
			<clipPath id="SVGID_14_">
				<use xlink:href="#SVGID_12_"  style="overflow:visible;"/>
			</clipPath>
		</g>
	</g>
</g>
</svg>
